<svg xmlns="http://www.w3.org/2000/svg" xmlns:xlink="http://www.w3.org/1999/xlink" stroke-miterlimit="10" stroke-linecap="square" stroke="none" fill="none" viewBox="224.52773613193403 108 512.383808095952 503.99999999999994" version="1.1" style="max-height: 500px" width="512.383808095952" height="503.99999999999994"><clipPath id="p.0"><path clip-rule="nonzero" d="m0 0l960.0 0l0 720.0l-960.0 0l0 -720.0z"/></clipPath><g clip-path="url(#p.0)"><path fill-rule="evenodd" d="m0 0l960.0 0l0 720.0l-960.0 0z" fill-opacity="0.0" fill="#000000"/><defs><linearGradient y2="32.37562823398011" x2="17.93542882075632" y1="13.451563187478813" x1="-0.9885688010375605" spreadMethod="pad" gradientTransform="matrix(26.762621767567406 0.0 0.0 26.762621767567406 0.0 0.0)" gradientUnits="userSpaceOnUse" id="p.1"><stop stop-color="#ff8400" offset="0.0"/><stop stop-color="#ff1500" offset="1.0"/></linearGradient></defs><path fill-rule="evenodd" d="m224.12599 192.94655l0 0c0 -46.131912 37.397293 -83.52923 83.52922 -83.52923l344.68958 0l0 0c22.15332 0 43.399292 8.800377 59.064087 24.465141c15.664795 15.66478 24.465149 36.910767 24.465149 59.064087l0 334.10693c0 46.131897 -37.39734 83.529236 -83.529236 83.529236l-344.68958 0c-46.131927 0 -83.52922 -37.39734 -83.52922 -83.529236z" fill="url(#p.1)"/><path fill-rule="evenodd" d="m298.2362 493.22833l66.6142 -266.45667l230.2992 0l66.6142 266.45667z" fill-opacity="0.0" fill="#000000"/><path fill-rule="evenodd" d="m298.2362 493.22833l66.6142 -266.45667l230.2992 0l66.6142 266.45667z" stroke-linecap="butt" stroke-linejoin="round" stroke-width="8.0" stroke="#f3f3f3"/><path fill-rule="evenodd" d="m404.55118 226.76903l0 0c0 -26.318329 33.779602 -47.65355 75.44882 -47.65355c41.66925 0 75.44879 21.33522 75.44879 47.65355l-23.826721 0l0 0c0 -13.159164 -23.112 -23.826767 -51.62207 -23.826767c-28.51007 0 -51.62204 10.667603 -51.62204 23.826767z" fill-opacity="0.0" fill="#000000"/><path fill-rule="evenodd" d="m404.55118 226.76903l0 0c0 -26.318329 33.779602 -47.65355 75.44882 -47.65355c41.66925 0 75.44879 21.33522 75.44879 47.65355l-23.826721 0l0 0c0 -13.159164 -23.112 -23.826767 -51.62207 -23.826767c-28.51007 0 -51.62204 10.667603 -51.62204 23.826767z" stroke-linecap="butt" stroke-linejoin="round" stroke-width="8.0" stroke="#f3f3f3"/><defs><linearGradient y2="5.459074779645294" x2="30.800524517754273" y1="-4.299589898844734" x1="21.04189424705066" spreadMethod="pad" gradientTransform="matrix(13.800811609014222 13.80081160828472 -13.80081160828472 13.800811609014222 0.0 0.0)" gradientUnits="userSpaceOnUse" id="p.2"><stop stop-color="#ff00ff" offset="0.0"/><stop stop-color="#ff1500" offset="1.0"/></linearGradient></defs><path fill-rule="evenodd" d="m441.05557 322.38055l0 0c50.43622 -50.43622 110.733246 -71.912445 134.67715 -47.968506l0 0c11.498291 11.498291 12.904175 32.147095 3.9083252 57.40396c-8.99585 25.256866 -27.656494 53.052887 -51.87683 77.27319l0 0c-50.436188 50.43622 -110.733215 71.912445 -134.67715 47.968506l0 0c-23.94394 -23.94394 -2.4677124 -84.24097 47.968506 -134.67715z" fill="url(#p.2)"/><path fill-rule="evenodd" d="m441.05557 322.38055l0 0c50.43622 -50.43622 110.733246 -71.912445 134.67715 -47.968506l0 0c11.498291 11.498291 12.904175 32.147095 3.9083252 57.40396c-8.99585 25.256866 -27.656494 53.052887 -51.87683 77.27319l0 0c-50.436188 50.43622 -110.733215 71.912445 -134.67715 47.968506l0 0c-23.94394 -23.94394 -2.4677124 -84.24097 47.968506 -134.67715z" stroke-linecap="butt" stroke-linejoin="round" stroke-width="8.0" stroke="#f3f3f3"/><defs><linearGradient y2="40.19165000350513" x2="3.9320279863173404" y1="30.43298565346194" x1="-5.8266016932829405" spreadMethod="pad" gradientTransform="matrix(13.800810958794381 -13.800810958794388 13.800810958794388 13.800810958794381 0.0 0.0)" gradientUnits="userSpaceOnUse" id="p.3"><stop stop-color="#ff00ff" offset="0.0"/><stop stop-color="#4a86e8" offset="1.0"/></linearGradient></defs><path fill-rule="evenodd" d="m430.91122 409.0892l0 0c-50.43622 -50.43622 -71.912445 -110.733215 -47.968506 -134.67715l0 0c11.498291 -11.498291 32.147095 -12.904144 57.40399 -3.9082947c25.256866 8.995819 53.052856 27.656464 77.27316 51.8768l0 0c50.43622 50.436188 71.912476 110.733215 47.968506 134.67715l0 0c-23.943909 23.94394 -84.24094 2.4677124 -134.67715 -47.968506z" fill="url(#p.3)"/><path fill-rule="evenodd" d="m430.91122 409.0892l0 0c-50.43622 -50.43622 -71.912445 -110.733215 -47.968506 -134.67715l0 0c11.498291 -11.498291 32.147095 -12.904144 57.40399 -3.9082947c25.256866 8.995819 53.052856 27.656464 77.27316 51.8768l0 0c50.43622 50.436188 71.912476 110.733215 47.968506 134.67715l0 0c-23.943909 23.94394 -84.24094 2.4677124 -134.67715 -47.968506z" stroke-linecap="butt" stroke-linejoin="round" stroke-width="8.0" stroke="#f3f3f3"/><path fill-rule="evenodd" d="m404.01944 312.62497l0 0c-8.793091 -8.79306 -11.740234 -20.109344 -6.5827026 -25.275604l0 0c2.4767456 -2.480896 6.52948 -3.1828003 11.266632 -1.9512634c4.7371216 1.2315369 9.77063 4.295624 13.993225 8.518219l0 0c8.79306 8.79306 11.740234 20.109314 6.582672 25.275574l0 0c-5.1575623 5.16626 -16.466766 2.2261353 -25.259827 -6.566925z" fill="#f3f3f3"/><path fill-rule="evenodd" d="m539.5575 290.34412l0 0c8.79303 -8.79306 20.109314 -11.740234 25.275574 -6.582672l0 0c2.480957 2.4767456 3.1828003 6.52948 1.951294 11.266602c-1.2315674 4.737152 -4.2956543 9.77066 -8.518188 13.993256l0 0c-8.793091 8.79306 -20.109375 11.740234 -25.275635 6.582672l0 0c-5.16626 -5.1575623 -2.2261353 -16.466766 6.5669556 -25.259857z" fill="#f3f3f3"/><path fill-rule="evenodd" d="m364.81866 244.00256l27.24408 27.181091l-11.212585 11.212616l-27.24411 -27.181107z" fill="#f3f3f3"/><path fill-rule="evenodd" d="m606.33044 255.18367l-27.181091 27.244095l-11.212585 -11.212616l27.181091 -27.24408z" fill="#f3f3f3"/></g></svg>