<?xml version="1.0" encoding="UTF-8"?>
<svg width="513px" height="504px" viewBox="0 0 513 504" version="1.1" xmlns="http://www.w3.org/2000/svg" xmlns:xlink="http://www.w3.org/1999/xlink">
    <title>Pound</title>
    <defs>
        <linearGradient x1="-48.9660273%" y1="49.9998241%" x2="49.9998221%" y2="146.919464%" id="linearGradient-1">
            <stop stop-color="#50B1D0" offset="0%"></stop>
            <stop stop-color="#77C7EA" offset="100%"></stop>
        </linearGradient>
        <path d="M1,84.52923 L1,84.52923 C1,38.397318 38.397293,1 84.52922,1 L429.2188,1 L429.2188,1 C451.37212,1 472.618092,9.800377 488.282887,25.465141 C503.947682,41.129921 512.748036,62.375908 512.748036,84.529228 L512.748036,418.636158 C512.748036,464.768055 475.350696,502.165394 429.2188,502.165394 L84.52922,502.165394 C38.397293,502.165394 1,464.768054 1,418.636158 L1,84.52923 Z" id="path-2"></path>
        <linearGradient x1="24.3651903%" y1="49.9998166%" x2="49.9999539%" y2="151.055796%" id="linearGradient-4">
            <stop stop-color="#FC9F82" offset="0%"></stop>
            <stop stop-color="#DD6C60" offset="100%"></stop>
        </linearGradient>
        <path d="M93.1590695,0.0233559514 L275.514643,0.201871918 C291.342336,0.21736635 305.065877,11.1525084 308.61537,26.5770735 L354.185126,224.603558 C358.396177,242.902967 346.975306,261.1513 328.675897,265.362351 C326.175127,265.937827 323.617245,266.22834 321.051115,266.22834 L43.3566562,266.22834 C24.5789747,266.22834 9.35665621,251.006021 9.35665621,232.22834 C9.35665621,229.436672 9.70047826,226.65563 10.3803582,223.948016 L60.1494874,25.7430156 C63.9488892,10.6119404 77.5582793,0.0080836451 93.1590695,0.0233559514 Z" id="path-5"></path>
        <linearGradient x1="-48.9660273%" y1="49.9998241%" x2="49.9998221%" y2="146.919464%" id="linearGradient-7">
            <stop stop-color="#99E6FF" offset="0%"></stop>
            <stop stop-color="#67D1FF" offset="100%"></stop>
        </linearGradient>
        <linearGradient x1="24.3651903%" y1="49.9998166%" x2="49.9999539%" y2="151.055796%" id="linearGradient-8">
            <stop stop-color="#FFC1AE" offset="0%"></stop>
            <stop stop-color="#FF4A36" offset="100%"></stop>
        </linearGradient>
    </defs>
    <g id="Pound" stroke="none" fill="none">
        <polygon id="Path" fill-opacity="0" fill="#000000" fill-rule="evenodd" points="-224 -108 736 -108 736 612 -224 612"></polygon>
        <g id="Group" stroke-width="1" fill-rule="evenodd" transform="translate(-0.874, 0.4173)">
            <mask id="mask-3" fill="white">
                <use xlink:href="#path-2"></use>
            </mask>
            <use id="Path" fill="url(#linearGradient-1)" xlink:href="#path-2"></use>
            <rect id="Rectangle" fill="url(#linearGradient-4)" mask="url(#mask-3)" x="0.87401" y="0.58268" width="256" height="503"></rect>
        </g>
        <path d="M107.5433,251.999995 L115.664701,219.514407 C130.466509,160.307203 183.664259,118.77166 244.69365,118.77166 L267.30635,118.77166 C328.335741,118.77166 381.533491,160.307203 396.335299,219.514407 L404.4567,251.999995 C418.819083,309.449499 383.89007,367.664535 326.440566,382.026918 C317.935574,384.153167 309.201917,385.22833 300.435172,385.22833 L211.564828,385.22833 C152.347234,385.22833 104.341888,337.222984 104.341888,278.00539 C104.341888,269.238644 105.417051,260.504987 107.5433,251.999995 Z" id="Path" fill-opacity="0" fill="#000000" fill-rule="evenodd"></path>
        <g id="Group" stroke-width="1" fill-rule="evenodd" transform="translate(74.2362, 118.7717)">
            <mask id="mask-6" fill="white">
                <use xlink:href="#path-5"></use>
            </mask>
            <path stroke="#FFFFFF" stroke-width="12" d="M93.1649432,-5.97664117 L275.520516,-5.79812521 C284.830924,-5.78901084 293.522464,-2.56823541 300.408385,2.91857982 C307.294307,8.40539505 312.374611,16.1582501 314.462548,25.2315237 L360.032304,223.258008 C362.509393,234.022366 360.388858,244.771702 354.957961,253.449221 C349.527064,262.12674 340.785805,268.732441 330.021447,271.20953 C327.079364,271.88656 324.070091,272.22834 321.051115,272.22834 L43.3566562,272.22834 C32.3109612,272.22834 22.3109612,267.751187 15.072385,260.512611 C7.83380871,253.274035 3.35665621,243.274035 3.35665621,232.22834 C3.35665621,228.944025 3.76115273,225.672211 4.56101145,222.486782 L54.3301407,24.2817819 C56.5650829,15.3811494 61.6853158,7.81205181 68.541047,2.47035823 C75.3967782,-2.87133535 83.9880078,-5.98562488 93.1649432,-5.97664117 Z"></path>
            <path d="M-74.11021,-33.82511 C-74.11021,-79.957022 -36.712917,-117.35434 9.41901,-117.35434 L354.10859,-117.35434 C376.26191,-117.35434 397.507882,-108.553963 413.172677,-92.889199 C428.837472,-77.224419 437.637826,-55.978432 437.637826,-33.825112 L437.637826,300.281818 C437.637826,346.413715 400.240486,383.811054 354.10859,383.811054 L9.41901,383.811054 C-36.712917,383.811054 -74.11021,346.413714 -74.11021,300.281818 L-74.11021,-33.82511 Z" id="Path-Copy" fill="url(#linearGradient-7)" mask="url(#mask-6)"></path>
            <rect id="Rectangle-Copy" fill="url(#linearGradient-8)" mask="url(#mask-6)" x="-74.2362" y="-117.77166" width="256" height="503"></rect>
        </g>
        <g id="Group" stroke-width="1" fill-rule="evenodd" transform="translate(138, 134)">
            <rect id="Rectangle-3" stroke="#FFFFFF" stroke-width="4.89380531" x="76.5530973" y="155.553097" width="83.8938053" height="83.8938053" rx="39.849556"></rect>
            <text id="A" font-family="FOTRodinNTLGPro-DB, FOT-RodinNTLG Pro" font-size="36.3539823" font-weight="500" fill="#FFFFFF">
                <tspan x="105.721575" y="210.984375">A</tspan>
            </text>
            <rect id="Rectangle-3-Copy" stroke="#FFFFFF" stroke-width="4.89380531" x="76.5530973" y="-2.44690265" width="83.8938053" height="83.8938053" rx="39.849556"></rect>
            <text id="Y" font-family="FOTRodinNTLGPro-DB, FOT-RodinNTLG Pro" font-size="36.3539823" font-weight="500" fill="#FFFFFF">
                <tspan x="107.284796" y="52.984375">Y</tspan>
            </text>
            <rect id="Rectangle-3-Copy-2" stroke="#FFFFFF" stroke-width="4.89380531" x="-2.44690265" y="76.5530973" width="83.8938053" height="83.8938053" rx="39.849556"></rect>
            <text id="X" font-family="FOTRodinNTLGPro-DB, FOT-RodinNTLG Pro" font-size="36.3539823" font-weight="500" fill="#FFFFFF">
                <tspan x="27.7031327" y="131.984375">X</tspan>
            </text>
            <rect id="Rectangle-3-Copy-3" stroke="#FFFFFF" stroke-width="4.89380531" x="155.553097" y="70.3812223" width="83.8938053" height="83.8938053" rx="39.849556"></rect>
            <text id="B" font-family="FOTRodinNTLGPro-DB, FOT-RodinNTLG Pro" font-size="36.3539823" font-weight="500" fill="#FFFFFF">
                <tspan x="184.63069" y="125.8125">B</tspan>
            </text>
        </g>
        <rect id="Rectangle-5" stroke="#FFFFFF" stroke-width="14" x="185" y="69" width="144" height="43" rx="13"></rect>
    </g>
</svg>