<svg width="420" height="551" viewBox="0 0 420 551" fill="none" xmlns="http://www.w3.org/2000/svg">
<g clip-path="url(#clip0_16_107)">
<path d="M368.911 71C375.672 71 381.304 76.1824 381.866 82.9199L419.7 536.921C420.322 544.382 414.535 550.797 407.1 550.995L406.745 551H13.0009C5.39557 551 -0.585792 544.499 0.0458002 536.92L37.8798 82.9199C38.4327 76.2877 43.8988 71.1625 50.5185 71.0039L50.8349 71H368.911ZM26.0429 526H393.703L357.87 96H61.8759L26.0429 526Z" fill="black"/>
<path d="M209.873 0C240.163 0 268.163 6.79704 289.017 18.3877C309.286 29.653 325.873 47.4284 325.873 70.5C325.873 70.667 325.869 70.8336 325.867 71H302.572C302.577 70.8326 302.58 70.6659 302.58 70.5C302.58 61.5392 295.806 50.3144 278.307 40.5879C261.392 31.1868 237.215 25 209.873 25C182.531 25 158.354 31.1868 141.439 40.5879C123.94 50.3144 117.166 61.5392 117.166 70.5C117.166 70.6659 117.169 70.8326 117.174 71H93.8788C93.8771 70.8336 93.873 70.667 93.873 70.5C93.873 47.4284 110.46 29.653 130.728 18.3877C151.582 6.79704 179.583 4.6371e-07 209.873 0Z" fill="black"/>
<path d="M271.873 297.5C278.777 297.5 284.373 303.096 284.373 310V416C284.373 422.904 278.777 428.5 271.873 428.5H147.873C140.969 428.5 135.373 422.904 135.373 416V310C135.373 303.096 140.969 297.5 147.873 297.5H271.873ZM160.373 403.5H259.373V322.5H160.373V403.5Z" fill="black"/>
<path d="M279.873 191.5L280.198 191.504C283.558 191.591 286.746 193.029 289.038 195.5C291.403 198.051 292.599 201.472 292.338 204.94L284.338 310.94C283.846 317.461 278.412 322.5 271.873 322.5H147.873C141.334 322.5 135.9 317.461 135.408 310.94L127.408 204.94C127.146 201.472 128.343 198.051 130.708 195.5C133.073 192.95 136.394 191.5 139.873 191.5H279.873ZM159.466 297.5H260.28L266.393 216.5H153.352L159.466 297.5Z" fill="black"/>
</g>
<defs>
<clipPath id="clip0_16_107">
<rect width="419.75" height="551" fill="white"/>
</clipPath>
</defs>
</svg>
